<?xml version="1.0"?>
<svg version="1.1" xmlns="http://www.w3.org/2000/svg" width="400" height="200" style=""><path fill="#f5f5f5" d="M44.512,106.16l-1.4-4.816s-2.632-0.896-6.328-0.896c-5.992,0-9.352,4.368-9.352,13.72c0,9.072,3.528,12.992,9.52,12.992c2.912,0,6.16-1.008,6.16-1.008l0-7.056l-4.2-1.288l0-4.592l16.128-0.28l0,4.872l-3.808,1.288l0,11.424s-5.768,3.752-15.232,3.752c-11.368,0-17.92-6.832-17.92-19.824c0-13.16,7.392-21,18.872-21c6.776,0,13.048,2.632,13.048,2.632l-0.28,10.08l-5.208,0z M74.61256,103.36l0.504,3.864s4.032-4.424,7.784-4.424c3.08,0,5.208,1.008,5.208,1.008l-0.448,10.752l-5.04,0l-0.84-4.76c-3.248,0-6.048,3.136-6.048,3.136l0,14.784l5.6,1.4l0,4.48l-18.48,0l0-4.48l4.48-1.4l0-18.2l-4.48-1.4l0-4.48z M113.33712,133.6l-1.008-3.64s-4.312,4.2-9.072,4.2c-5.432,0-8.736-3.192-8.736-8.792c0-6.608,4.984-9.24,13.496-9.24l3.92,0l0-3.08c0-2.856-1.512-4.088-4.312-4.088c-2.856,0-4.928,0.84-4.928,0.84l-0.84,3.528l-5.04,0l-0.392-8.288s6.776-2.24,12.152-2.24c8.512,0,11.76,2.968,11.76,11.088l0,13.832l4.2,1.008l0,4.48z M111.93712,120.888l-3.192,0c-4.368,0-6.104,1.12-6.104,3.64c0,2.128,1.176,3.36,3.304,3.36c2.968,0,5.992-3.248,5.992-3.248l0-3.752z M137.10968,103.92l0-2.52c0-7.112,4.088-11.872,12.04-11.872c6.048,0,9.912,2.072,9.912,2.072l-0.168,8.232l-5.04,0l-0.84-3.92s-1.344-0.224-3.192-0.224c-3.08,0-4.312,1.848-4.312,4.76l0,3.472l7.28,0l-0.168,5.6l-7.112,0l0,18.2l5.6,1.4l0,4.48l-18.48,0l0-4.48l4.48-1.4l0-18.2l-5.04,0l0-4.76z M166.87424,103.92l0-2.52c0-7.112,4.088-11.872,12.04-11.872c6.048,0,9.912,2.072,9.912,2.072l-0.168,8.232l-5.04,0l-0.84-3.92s-1.344-0.224-3.192-0.224c-3.08,0-4.312,1.848-4.312,4.76l0,3.472l7.28,0l-0.168,5.6l-7.112,0l0,18.2l5.6,1.4l0,4.48l-18.48,0l0-4.48l4.48-1.4l0-18.2l-5.04,0l0-4.76z M194.7908,94.12c0-3.192,2.296-5.04,4.816-5.04c2.912,0,4.704,1.512,4.704,5.04c0,3.304-2.408,5.096-4.704,5.096c-3.024,0-4.816-1.792-4.816-5.096z M204.1988,127.72l3.92,1.4l0,4.48l-16.8,0l0-4.48l4.48-1.4l0-18.2l-4.48-1.4l0-4.48l12.88-0.28l0,24.36z M235.53136,126.432l2.016,4.256c-2.744,2.016-5.88,3.472-9.52,3.472c-6.44,0-8.288-4.48-8.288-10.92l0-12.88l-5.208,0l0-5.432l5.208-0.728l0-7.728l8.4-1.512l0,9.24l7.84,0l0,6.16l-7.84,0l0,12.32c0,3.584,0.616,5.04,2.968,5.04c1.512,0,3.696-0.896,4.424-1.288z M242.27992,108.12l0-4.48l14.952-0.28l0,4.76l-3.136,0.56l4.984,15.68l4.76-15.512l-3.248-0.728l0-4.48l15.064-0.28l0,4.76l-3.472,0.728l-8.232,22.96c-2.688,7.392-6.328,15.232-15.232,15.232c-1.904,0-5.432-0.448-5.432-0.448l0.784-5.992l3.64,0c4.48,0,6.552-4.76,7.504-6.944l-9.968-24.64z"/><path fill="#ffffff" d="M285.382464375,95.26953125q0-0.642578125,0.1572265625-0.9365234375t0.451171875-0.41015625t0.7109375-0.0888671875t0.9775390625,0.02734375q1.421875,0,2.87109375,0.4375t2.611328125,1.2783203125t1.873046875,2.0712890625t0.7109375,2.830078125q0,1.06640625-0.3076171875,2.0166015625t-0.8681640625,1.77734375t-1.3125,1.5107421875t-1.654296875,1.189453125q0.369140625,0.369140625,0.95703125,1.3056640625t1.162109375,1.99609375t1.0185546875,2.0576171875t0.5263671875,1.50390625l-0.1640625,0.24609375q-0.369140625,0.21875-0.888671875,0.232421875q-0.24609375,0-0.642578125-0.0615234375t-0.505859375-0.3623046875q-0.560546875-1.572265625-1.2236328125-3.240234375t-1.6337890625-3.0078125l0-0.02734375q-0.341796875,0.13671875-0.6767578125,0.2666015625t-0.6767578125,0.2392578125q0.109375,1.517578125,0.2255859375,2.9873046875t0.1162109375,2.9736328125q0,0.19140625-0.1845703125,0.3076171875t-0.4169921875,0.1845703125t-0.4716796875,0.095703125t-0.3896484375,0.02734375q-0.13671875,0-0.3896484375-0.02734375t-0.4853515625-0.095703125t-0.4033203125-0.1982421875t-0.1708984375-0.3486328125q0-1.517578125-0.068359375-3.0283203125t-0.150390625-3.0146484375q-0.423828125-0.2734375-0.423828125-0.7109375q0-0.341796875,0.328125-0.46484375q-0.1640625-2.884765625-0.3759765625-5.755859375t-0.2119140625-5.783203125z M287.85707375,94.845703125q0.19140625,2.966796875,0.4306640625,5.865234375t0.4580078125,5.865234375q0.95703125-0.2734375,1.7841796875-0.9501953125t1.4287109375-1.5244140625t0.9365234375-1.845703125t0.3349609375-1.982421875q0-1.09375-0.4375-2.0986328125t-1.162109375-1.7568359375q-0.73828125-0.751953125-1.6953125-1.17578125q-0.84765625-0.369140625-1.77734375-0.369140625l-0.24609375,0z M297.98342140625,107.697265625q0-0.2734375,0.0615234375-0.724609375t0.1435546875-0.8955078125t0.19140625-0.8271484375t0.259765625-0.4921875q0.109375-0.109375,0.3759765625-0.21875t0.560546875-0.1572265625t0.546875,0.041015625t0.3076171875,0.3623046875q-0.19140625,0.24609375-0.3486328125,0.8408203125t-0.2392578125,1.3193359375q-0.068359375,0.615234375-0.068359375,1.271484375l0,0.232421875q0.013671875,0.765625,0.13671875,1.408203125t0.3759765625,1.0595703125t0.7041015625,0.4169921875q0.95703125,0,1.75-0.8818359375t1.408203125-2.1533203125t1.080078125-2.7001953125t0.79296875-2.4951171875q0.08203125-0.314453125,0.3896484375-0.423828125t0.6630859375-0.0751953125t0.6357421875,0.1708984375t0.3349609375,0.328125q-0.2734375,2.296875-0.4306640625,4.59375t-0.1572265625,4.62109375q0,0.451171875,0.041015625,0.8271484375t-0.041015625,0.642578125t-0.3623046875,0.423828125t-0.8955078125,0.1572265625q-0.13671875,0-0.3486328125-0.02734375t-0.4375-0.0888671875t-0.3828125-0.1845703125t-0.1572265625-0.287109375q0-1.01171875,0.0751953125-2.078125t0.2119140625-2.064453125q-0.369140625,0.533203125-0.8134765625,1.0595703125t-0.9775390625,0.9501953125t-1.1484375,0.6767578125t-1.326171875,0.2529296875q-1.01171875,0-1.5927734375-0.478515625t-0.875-1.1962890625t-0.369140625-1.5654296875t-0.0751953125-1.640625z M310.8441440625,105.373046875q0-0.560546875,0.328125-0.9638671875t0.7998046875-0.65625t1.0322265625-0.3759765625t1.0390625-0.123046875q0.369140625,0,0.984375,0.109375t1.203125,0.328125t1.0185546875,0.57421875t0.4306640625,0.833984375q0,0.21875-0.1640625,0.3896484375t-0.341796875,0.1708984375q-0.369140625,0-0.669921875-0.2392578125t-0.6220703125-0.505859375t-0.7041015625-0.505859375t-0.861328125-0.2392578125t-0.8681640625,0.3076171875t-0.3896484375,0.8134765625q0,0.833984375,0.587890625,1.6337890625t1.2919921875,1.681640625t1.2919921875,1.8525390625t0.587890625,2.146484375q0,0.505859375-0.2119140625,0.8544921875t-0.560546875,0.5673828125t-0.7861328125,0.3349609375t-0.84765625,0.1162109375q-0.451171875,0-1.052734375-0.2119140625t-1.134765625-0.560546875t-0.8955078125-0.8134765625t-0.3623046875-0.970703125q0-0.24609375,0.3486328125-0.314453125t0.5126953125-0.068359375q0.08203125,0,0.2529296875,0.0546875t0.3349609375,0.123046875t0.2939453125,0.150390625t0.1025390625,0.177734375q0.13671875,0.1640625,0.4169921875,0.4853515625t0.560546875,0.51953125t0.4921875,0.1435546875t0.2119140625-0.615234375q0-1.06640625-0.57421875-1.9619140625t-1.2509765625-1.75t-1.2509765625-1.6953125t-0.57421875-1.7978515625z M320.47830421875,105.373046875q0-0.560546875,0.328125-0.9638671875t0.7998046875-0.65625t1.0322265625-0.3759765625t1.0390625-0.123046875q0.369140625,0,0.984375,0.109375t1.203125,0.328125t1.0185546875,0.57421875t0.4306640625,0.833984375q0,0.21875-0.1640625,0.3896484375t-0.341796875,0.1708984375q-0.369140625,0-0.669921875-0.2392578125t-0.6220703125-0.505859375t-0.7041015625-0.505859375t-0.861328125-0.2392578125t-0.8681640625,0.3076171875t-0.3896484375,0.8134765625q0,0.833984375,0.587890625,1.6337890625t1.2919921875,1.681640625t1.2919921875,1.8525390625t0.587890625,2.146484375q0,0.505859375-0.2119140625,0.8544921875t-0.560546875,0.5673828125t-0.7861328125,0.3349609375t-0.84765625,0.1162109375q-0.451171875,0-1.052734375-0.2119140625t-1.134765625-0.560546875t-0.8955078125-0.8134765625t-0.3623046875-0.970703125q0-0.24609375,0.3486328125-0.314453125t0.5126953125-0.068359375q0.08203125,0,0.2529296875,0.0546875t0.3349609375,0.123046875t0.2939453125,0.150390625t0.1025390625,0.177734375q0.13671875,0.1640625,0.4169921875,0.4853515625t0.560546875,0.51953125t0.4921875,0.1435546875t0.2119140625-0.615234375q0-1.06640625-0.57421875-1.9619140625t-1.2509765625-1.75t-1.2509765625-1.6953125t-0.57421875-1.7978515625z M330.112464375,108.572265625q0-1.2578125,0.2939453125-2.4677734375t0.4990234375-2.4130859375q0.0546875-0.314453125,0.4306640625-0.3896484375t0.6357421875-0.0751953125q0.451171875,0,0.724609375,0.13671875q0.109375,0.0546875,0.205078125,0.123046875t0.095703125,0.177734375q0,1.17578125-0.2802734375,2.296875t-0.2802734375,2.37890625q0,0.423828125,0.0615234375,0.7998046875t0.1162109375,0.7451171875l0.08203125,0.396484375q0,0.109375,0.013671875,0.19140625t0.041015625,0.19140625q0,0.24609375-0.3486328125,0.3349609375t-0.6083984375,0.0888671875q-0.396484375,0-0.7314453125-0.1572265625t-0.5263671875-0.5400390625l-0.19140625-0.396484375q-0.1640625-0.314453125-0.1640625-0.7041015625t-0.068359375-0.7177734375z M330.987464375,100.341796875l0-0.259765625q0-0.642578125,0.3212890625-1.1484375t0.9638671875-0.505859375q0.08203125,0,0.1572265625,0.013671875t0.1572265625,0.013671875q0.1640625,0.02734375,0.4306640625,0.1298828125t0.2666015625,0.3212890625l0,0.02734375q-0.0546875,0.109375-0.068359375,0.2255859375t-0.068359375,0.1982421875l0.02734375-0.02734375q-0.1640625,0.423828125-0.2666015625,0.68359375t-0.2255859375,0.4169921875t-0.3076171875,0.2255859375t-0.5263671875,0.068359375q-0.0546875,0-0.19140625-0.013671875t-0.2939453125-0.0546875t-0.2666015625-0.109375t-0.109375-0.205078125z M336.08256203125,108.900390625q0-0.9296875,0.2529296875-1.791015625t0.7587890625-1.5380859375t1.2646484375-1.080078125t1.7568359375-0.4033203125q0.615234375,0,1.3603515625,0.1845703125t1.4013671875,0.546875t1.09375,0.9228515625t0.4375,1.28515625q0,0.341796875-0.1162109375,0.51953125t-0.4716796875,0.177734375l-0.150390625-0.02734375q0.396484375,1.06640625,0.68359375,2.1875t0.560546875,2.2421875q0.109375,0.21875,0.1640625,0.3896484375t0.0546875,0.3349609375q0,0.21875-0.123046875,0.3623046875t-0.3212890625,0.2119140625t-0.41015625,0.095703125t-0.3759765625,0.02734375q-0.587890625,0-0.8818359375-0.205078125t-0.423828125-0.560546875t-0.1572265625-0.7998046875t-0.109375-0.8955078125q-0.1640625,0.533203125-0.4306640625,1.0390625t-0.62890625,0.9091796875t-0.8544921875,0.642578125t-1.107421875,0.2392578125q-0.90234375,0-1.517578125-0.51953125t-0.9912109375-1.2783203125t-0.546875-1.6201171875t-0.1708984375-1.599609375z M338.02396828125,108.708984375q0,0.505859375,0.068359375,1.06640625t0.2255859375,1.107421875t0.4033203125,1.0322265625t0.615234375,0.8544921875q0.669921875-0.724609375,0.9912109375-1.763671875t0.57421875-2.0029296875t0.57421875-1.654296875t0.9912109375-0.6904296875q0.423828125,0,0.7109375,0.150390625q-0.13671875-0.341796875-0.451171875-0.6630859375t-0.7041015625-0.587890625t-0.806640625-0.4375t-0.7861328125-0.1708984375q-0.109375,0-0.2529296875,0.0341796875t-0.2255859375,0.0068359375q-0.560546875,0.1640625-0.9228515625,0.5673828125t-0.587890625,0.9501953125t-0.3212890625,1.12109375t-0.095703125,1.080078125z M347.9452378125,108.96875l0-0.396484375q0-0.4921875,0.02734375-0.9296875q0.02734375-0.615234375,0.02734375-1.01171875q0-0.21875,0.02734375-0.4990234375t0.13671875-0.4443359375q0.13671875-0.13671875,0.3212890625-0.2802734375t0.4033203125-0.1435546875q0.697265625,0,1.09375,0.1572265625t0.423828125,0.6494140625l0.0546875,0.423828125q0.24609375-0.587890625,0.65625-1.4560546875t0.9501953125-1.654296875t1.216796875-1.33984375t1.4287109375-0.5537109375q0.697265625,0,1.1484375,0.65625t0.7177734375,1.6748046875t0.3759765625,2.26953125t0.150390625,2.4541015625t0.0546875,2.1943359375t0.095703125,1.4970703125q0.0546875,0.423828125,0.1845703125,0.8955078125t0.1298828125,0.8681640625q0,0.109375-0.1572265625,0.2119140625t-0.3349609375,0.1708984375t-0.3623046875,0.109375t-0.2666015625,0.041015625q-0.533203125,0-0.7587890625-0.7998046875t-0.2802734375-2.0029296875t-0.0546875-2.6044921875t-0.095703125-2.6044921875t-0.3896484375-2.0029296875t-0.9365234375-0.8271484375q-0.587890625,0-1.216796875,0.7587890625t-1.080078125,2.0166015625q-0.4375,1.2578125-0.6015625,2.857421875q-0.0546875,0.505859375-0.0546875,1.01171875q0,1.107421875,0.232421875,2.21484375q0.02734375,0.19140625-0.1572265625,0.287109375t-0.4580078125,0.150390625t-0.5537109375,0.068359375t-0.4306640625,0.013671875q-0.533203125,0-0.8544921875-0.3759765625t-0.4990234375-0.9638671875t-0.2392578125-1.3193359375t-0.0751953125-1.4423828125z"/></svg>
